<svg xmlns="http://www.w3.org/2000/svg" xmlns:xlink="http://www.w3.org/1999/xlink" width="1140" height="667.88"><rect width="1140" height="667.88" rx="5" ry="5" class="a"/><svg y="0%" x="0%"><circle cx="20" cy="20" r="6" fill="#ff5f58"/><circle cx="40" cy="20" r="6" fill="#ffbd2e"/><circle cx="60" cy="20" r="6" fill="#18c132"/></svg><svg height="607.88" viewBox="0 0 110 60.788" width="1100" x="15" xmlns="http://www.w3.org/2000/svg" xmlns:xlink="http://www.w3.org/1999/xlink" y="50"><style>@keyframes i{0%{transform:translateX(0)}5.2%{transform:translateX(-990px)}5.3%{transform:translateX(-1430px)}23.3%{transform:translateX(-1540px)}72.8%{transform:translateX(-1650px)}73%{transform:translateX(-1980px)}73.1%{transform:translateX(-2310px)}89%{transform:translateX(-2530px)}91.3%{transform:translateX(-2640px)}91.4%{transform:translateX(-2860px)}99.7%{transform:translateX(-2970px)}99.8%{transform:translateX(-3190px)}}.a{fill:#282d35}.f{fill:#b9c0cb;white-space:pre}</style><g font-family="Monaco,Consolas,Menlo,'Bitstream Vera Sans Mono','Powerline Symbols',monospace" font-size="1.67"><defs><symbol id="1"><text y="1.67" class="f">ww&gt;</text></symbol><symbol id="2"><text y="1.67" class="f">ww&gt;export</text><text x="10.02" y="1.67" class="f">WW_HELPER_BIN=&apos;/Users/liuwei/workspace/ww/.tools/bin/ww-helper-demo&apos;</text></symbol><symbol id="3"><text y="1.67" class="f">ww&gt;source</text><text x="10.02" y="1.67" class="f">&apos;/Users/liuwei/workspace/ww/shell/ww.sh&apos;</text></symbol><symbol id="4"><text y="1.67" class="f">ww&gt;cd</text><text x="6.012" y="1.67" class="f">&apos;/tmp/ww-demo-site/repo&apos;</text></symbol><symbol id="5"><text x="2.004" y="1.67" class="f">[3]</text><text x="8.016" y="1.67" class="f">hotfix</text><text x="15.03" y="1.67" class="f">/private/tmp/ww-demo-site/repo/.worktrees/hotfix</text></symbol><symbol id="6"><text y="1.67" class="f">Use</text><text x="4.008" y="1.67" class="f">Up/Down</text><text x="12.024" y="1.67" class="f">(or</text><text x="16.032" y="1.67" class="f">j/k).</text><text x="22.044" y="1.67" class="f">Enter</text><text x="28.056" y="1.67" class="f">to</text><text x="31.062" y="1.67" class="f">confirm.</text><text x="40.08" y="1.67" class="f">Esc/Ctrl-C</text><text x="51.102" y="1.67" class="f">to</text><text x="54.108" y="1.67" class="f">cancel.</text></symbol><symbol id="7"><text x="2.004" y="1.67" class="f">[1]</text><text x="6.012" y="1.67" class="f">*</text><text x="8.016" y="1.67" class="f">main</text><text x="13.026" y="1.67" class="f">/private/tmp/ww-demo-site/repo</text></symbol><symbol id="8"><text y="1.67" class="f">*</text><text x="2.004" y="1.67" class="f">[2]</text><text x="8.016" y="1.67" class="f">feat-a</text><text x="15.03" y="1.67" class="f">/private/tmp/ww-demo-site/repo/.worktrees/feat-a</text></symbol><symbol id="9"><text y="1.67" class="f">ww&gt;pwd</text></symbol><symbol id="10"><text y="1.67" class="f">/private/tmp/ww-demo-site/repo/.worktrees/feat-a</text></symbol><symbol id="11"><text y="1.67" class="f">ww&gt;ww</text><text x="6.012" y="1.67" class="f">new</text><text x="10.02" y="1.67" class="f">feat-demo</text></symbol><symbol id="12"><text y="1.67" class="f">ww&gt;git</text><text x="7.014" y="1.67" class="f">branch</text><text x="14.028" y="1.67" class="f">--show-current</text></symbol><symbol id="13"><text y="1.67" class="f">feat-demo</text></symbol><symbol id="14"><text y="1.67" class="f">ww&gt;ww</text><text x="6.012" y="1.67" class="f">list</text></symbol><symbol id="15"><text y="1.67" class="f">[1]</text><text x="4.008" y="1.67" class="f">*</text><text x="6.012" y="1.67" class="f">feat-demo</text><text x="16.032" y="1.67" class="f">/private/tmp/ww-demo-site/repo/.worktrees/feat-demo</text></symbol><symbol id="16"><text y="1.67" class="f">[2]</text><text x="6.012" y="1.67" class="f">feat-a</text><text x="13.026" y="1.67" class="f">/private/tmp/ww-demo-site/repo/.worktrees/feat-a</text></symbol><symbol id="17"><text y="1.67" class="f">[3]</text><text x="6.012" y="1.67" class="f">hotfix</text><text x="13.026" y="1.67" class="f">/private/tmp/ww-demo-site/repo/.worktrees/hotfix</text></symbol><symbol id="18"><text y="1.67" class="f">[4]</text><text x="6.012" y="1.67" class="f">main</text><text x="11.022" y="1.67" class="f">/private/tmp/ww-demo-site/repo</text></symbol><symbol id="a"><path fill="transparent" d="M0 0h110v28H0z"/></symbol><symbol id="b"><path fill="#6f7683" d="M0 0h1.102v2.171H0z"/></symbol></defs><path class="a" d="M0 0h110v60.788H0z"/><g style="animation-duration:.512713s;animation-iteration-count:infinite;animation-name:i;animation-timing-function:steps(1,end)"><svg width="3300"><svg><use xlink:href="#a"/><use xlink:href="#b" x="-.004"/></svg><svg x="110"><use xlink:href="#a"/><use xlink:href="#b" x="2.996"/><use xlink:href="#1"/></svg><svg x="220"><use xlink:href="#a"/><use xlink:href="#b" x="31.996"/><text y="1.67" class="f">ww&gt;export</text><text x="10.02" y="1.67" class="f">WW_HELPER_BIN=&apos;/Users/</text></svg><svg x="330"><use xlink:href="#a"/><use xlink:href="#b" x="59.996"/><text y="1.67" class="f">ww&gt;export</text><text x="10.02" y="1.67" class="f">WW_HELPER_BIN=&apos;/Users/liuwei/workspace/ww/.tools/b</text></svg><svg x="440"><use xlink:href="#a"/><use xlink:href="#b" x="-.004" y="2.146"/><use xlink:href="#2"/></svg><svg x="550"><use xlink:href="#a"/><use xlink:href="#b" x="2.996" y="2.146"/><use xlink:href="#2"/><use xlink:href="#1" y="2.171"/></svg><svg x="660"><use xlink:href="#a"/><use xlink:href="#b" x="22.996" y="2.146"/><use xlink:href="#2"/><text y="3.841" class="f">ww&gt;source</text><text x="10.02" y="3.841" class="f">&apos;/Users/liuwe</text></svg><svg x="770"><use xlink:href="#a"/><use xlink:href="#b" x="47.996" y="2.146"/><use xlink:href="#2"/><text y="3.841" class="f">ww&gt;source</text><text x="10.02" y="3.841" class="f">&apos;/Users/liuwei/workspace/ww/shell/ww.s</text></svg><svg x="880"><use xlink:href="#a"/><use xlink:href="#b" x="-.004" y="4.317"/><use xlink:href="#2"/><use xlink:href="#3" y="2.171"/></svg><svg x="990"><use xlink:href="#a"/><use xlink:href="#b" x="2.996" y="4.317"/><use xlink:href="#2"/><use xlink:href="#3" y="2.171"/><use xlink:href="#1" y="4.342"/></svg><svg x="1100"><use xlink:href="#a"/><use xlink:href="#b" x="24.996" y="4.317"/><use xlink:href="#2"/><use xlink:href="#3" y="2.171"/><text y="6.012" class="f">ww&gt;cd</text><text x="6.012" y="6.012" class="f">&apos;/tmp/ww-demo-site/</text></svg><svg x="1210"><use xlink:href="#a"/><use xlink:href="#b" x="-.004" y="6.488"/><use xlink:href="#2"/><use xlink:href="#3" y="2.171"/><use xlink:href="#4" y="4.342"/></svg><svg x="1320"><use xlink:href="#a"/><use xlink:href="#b" x="2.996" y="6.488"/><use xlink:href="#2"/><use xlink:href="#3" y="2.171"/><use xlink:href="#4" y="4.342"/><use xlink:href="#1" y="6.513"/></svg><svg x="1430"><use xlink:href="#a"/><use xlink:href="#b" x="-.004" y="8.659"/><use xlink:href="#2"/><use xlink:href="#3" y="2.171"/><use xlink:href="#4" y="4.342"/><text y="8.183" class="f">ww&gt;ww</text></svg><svg x="1540"><use xlink:href="#a"/><use xlink:href="#b" x="60.996" y="8.659"/><text y="1.67" class="f">*</text><text x="2.004" y="1.67" class="f">[1]</text><text x="6.012" y="1.67" class="f">*</text><text x="8.016" y="1.67" class="f">main</text><text x="13.026" y="1.67" class="f">/private/tmp/ww-demo-site/repo</text><text x="2.004" y="3.841" class="f">[2]</text><text x="8.016" y="3.841" class="f">feat-a</text><text x="15.03" y="3.841" class="f">/private/tmp/ww-demo-site/repo/.worktrees/feat-a</text><use xlink:href="#5" y="4.342"/><use xlink:href="#6" y="8.684"/></svg><svg x="1650"><use xlink:href="#a"/><use xlink:href="#b" x="-.004" y="10.83"/><use xlink:href="#7"/><use xlink:href="#8" y="2.171"/><use xlink:href="#5" y="4.342"/><use xlink:href="#6" y="8.684"/></svg><svg x="1760"><use xlink:href="#a"/><use xlink:href="#b" x="2.996" y="10.83"/><use xlink:href="#7"/><use xlink:href="#8" y="2.171"/><use xlink:href="#5" y="4.342"/><use xlink:href="#6" y="8.684"/><use xlink:href="#1" y="10.855"/></svg><svg x="1870"><use xlink:href="#a"/><use xlink:href="#b" x="-.004" y="13.001"/><use xlink:href="#7"/><use xlink:href="#8" y="2.171"/><use xlink:href="#5" y="4.342"/><use xlink:href="#6" y="8.684"/><use xlink:href="#9" y="10.855"/></svg><svg x="1980"><use xlink:href="#a"/><use xlink:href="#b" x="-.004" y="15.172"/><use xlink:href="#7"/><use xlink:href="#8" y="2.171"/><use xlink:href="#5" y="4.342"/><use xlink:href="#6" y="8.684"/><use xlink:href="#9" y="10.855"/><use xlink:href="#10" y="13.026"/></svg><svg x="2090"><use xlink:href="#a"/><use xlink:href="#b" x="2.996" y="15.172"/><use xlink:href="#7"/><use xlink:href="#8" y="2.171"/><use xlink:href="#5" y="4.342"/><use xlink:href="#6" y="8.684"/><use xlink:href="#9" y="10.855"/><use xlink:href="#10" y="13.026"/><use xlink:href="#1" y="15.197"/></svg><svg x="2200"><use xlink:href="#a"/><use xlink:href="#b" x="18.996" y="15.172"/><use xlink:href="#7"/><use xlink:href="#8" y="2.171"/><use xlink:href="#5" y="4.342"/><use xlink:href="#6" y="8.684"/><use xlink:href="#9" y="10.855"/><use xlink:href="#10" y="13.026"/><use xlink:href="#11" y="15.197"/></svg><svg x="2310"><use xlink:href="#a"/><use xlink:href="#b" x="-.004" y="17.343"/><use xlink:href="#7"/><use xlink:href="#8" y="2.171"/><use xlink:href="#5" y="4.342"/><use xlink:href="#6" y="8.684"/><use xlink:href="#9" y="10.855"/><use xlink:href="#10" y="13.026"/><use xlink:href="#11" y="15.197"/></svg><svg x="2420"><use xlink:href="#a"/><use xlink:href="#b" x="2.996" y="17.343"/><use xlink:href="#7"/><use xlink:href="#8" y="2.171"/><use xlink:href="#5" y="4.342"/><use xlink:href="#6" y="8.684"/><use xlink:href="#9" y="10.855"/><use xlink:href="#10" y="13.026"/><use xlink:href="#11" y="15.197"/><use xlink:href="#1" y="17.368"/></svg><svg x="2530"><use xlink:href="#a"/><use xlink:href="#b" x="-.004" y="19.514"/><use xlink:href="#7"/><use xlink:href="#8" y="2.171"/><use xlink:href="#5" y="4.342"/><use xlink:href="#6" y="8.684"/><use xlink:href="#9" y="10.855"/><use xlink:href="#10" y="13.026"/><use xlink:href="#11" y="15.197"/><use xlink:href="#12" y="17.368"/></svg><svg x="2640"><use xlink:href="#a"/><use xlink:href="#b" x="-.004" y="21.685"/><use xlink:href="#7"/><use xlink:href="#8" y="2.171"/><use xlink:href="#5" y="4.342"/><use xlink:href="#6" y="8.684"/><use xlink:href="#9" y="10.855"/><use xlink:href="#10" y="13.026"/><use xlink:href="#11" y="15.197"/><use xlink:href="#12" y="17.368"/><use xlink:href="#13" y="19.539"/></svg><svg x="2750"><use xlink:href="#a"/><use xlink:href="#b" x="2.996" y="21.685"/><use xlink:href="#7"/><use xlink:href="#8" y="2.171"/><use xlink:href="#5" y="4.342"/><use xlink:href="#6" y="8.684"/><use xlink:href="#9" y="10.855"/><use xlink:href="#10" y="13.026"/><use xlink:href="#11" y="15.197"/><use xlink:href="#12" y="17.368"/><use xlink:href="#13" y="19.539"/><use xlink:href="#1" y="21.71"/></svg><svg x="2860"><use xlink:href="#a"/><use xlink:href="#b" x="-.004" y="23.856"/><use xlink:href="#7"/><use xlink:href="#8" y="2.171"/><use xlink:href="#5" y="4.342"/><use xlink:href="#6" y="8.684"/><use xlink:href="#9" y="10.855"/><use xlink:href="#10" y="13.026"/><use xlink:href="#11" y="15.197"/><use xlink:href="#12" y="17.368"/><use xlink:href="#13" y="19.539"/><use xlink:href="#14" y="21.71"/></svg><svg x="2970"><use xlink:href="#a"/><use xlink:href="#b" x="-.004" y="32.54"/><use xlink:href="#7"/><use xlink:href="#8" y="2.171"/><use xlink:href="#5" y="4.342"/><use xlink:href="#6" y="8.684"/><use xlink:href="#9" y="10.855"/><use xlink:href="#10" y="13.026"/><use xlink:href="#11" y="15.197"/><use xlink:href="#12" y="17.368"/><use xlink:href="#13" y="19.539"/><use xlink:href="#14" y="21.71"/><use xlink:href="#15" y="23.881"/><use xlink:href="#16" y="26.052"/><use xlink:href="#17" y="28.223"/><use xlink:href="#18" y="30.394"/></svg><svg x="3080"><use xlink:href="#a"/><use xlink:href="#b" x="2.996" y="32.54"/><use xlink:href="#7"/><use xlink:href="#8" y="2.171"/><use xlink:href="#5" y="4.342"/><use xlink:href="#6" y="8.684"/><use xlink:href="#9" y="10.855"/><use xlink:href="#10" y="13.026"/><use xlink:href="#11" y="15.197"/><use xlink:href="#12" y="17.368"/><use xlink:href="#13" y="19.539"/><use xlink:href="#14" y="21.71"/><use xlink:href="#15" y="23.881"/><use xlink:href="#16" y="26.052"/><use xlink:href="#17" y="28.223"/><use xlink:href="#18" y="30.394"/><use xlink:href="#1" y="32.565"/></svg><svg x="3190"><use xlink:href="#a"/><use xlink:href="#b" x="-.004" y="36.882"/><use xlink:href="#7"/><use xlink:href="#8" y="2.171"/><use xlink:href="#5" y="4.342"/><use xlink:href="#6" y="8.684"/><use xlink:href="#9" y="10.855"/><use xlink:href="#10" y="13.026"/><use xlink:href="#11" y="15.197"/><use xlink:href="#12" y="17.368"/><use xlink:href="#13" y="19.539"/><use xlink:href="#14" y="21.71"/><use xlink:href="#15" y="23.881"/><use xlink:href="#16" y="26.052"/><use xlink:href="#17" y="28.223"/><use xlink:href="#18" y="30.394"/><text y="34.235" class="f">ww&gt;exit</text><text y="36.406" class="f">exit</text></svg></svg></g></g></svg></svg>